<?xml version="1.0" standalone="no"?>
<!DOCTYPE svg PUBLIC "-//W3C//DTD SVG 20010904//EN"
 "http://www.w3.org/TR/2001/REC-SVG-20010904/DTD/svg10.dtd">
<svg version="1.0" xmlns="http://www.w3.org/2000/svg"
 width="525.000000pt" height="525.000000pt" viewBox="0 0 525.000000 525.000000"
 preserveAspectRatio="xMidYMid meet">
<metadata>
Created by potrace 1.14, written by Peter Selinger 2001-2017
</metadata>
<g transform="translate(0.000000,525.000000) scale(0.100000,-0.100000)"
fill="#000000" stroke="none">
<path d="M0 3525 c1 -1318 4 -1725 13 -1729 9 -3 9 -5 0 -5 -9 -1 -12 -58 -13
-226 0 -208 1 -225 17 -225 10 -1 494 0 1076 0 846 0 1058 -2 1054 -12 -2 -8
-22 -13 -52 -13 l-48 0 -33 -85 c-19 -51 -39 -86 -48 -88 -9 -2 -16 -12 -16
-23 0 -10 -4 -19 -9 -19 -5 0 -7 -9 -4 -20 3 -12 0 -20 -6 -20 -7 0 -10 -4 -6
-9 3 -5 -2 -16 -10 -24 -8 -9 -12 -23 -9 -31 3 -9 1 -16 -6 -16 -6 0 -9 -4 -6
-9 9 -14 -4 -41 -20 -41 -17 0 -19 -20 -1 -20 6 -1 1 -10 -12 -20 -13 -11 -19
-20 -13 -20 21 0 -1 -40 -22 -41 -19 0 -19 -1 -3 -8 10 -4 17 -10 15 -14 -2
-3 4 -15 13 -25 13 -15 37 -21 109 -26 51 -4 101 -13 111 -19 14 -9 21 -9 31
1 15 15 138 17 138 2 0 -13 37 -13 45 0 8 13 135 13 135 0 0 -11 35 -8 46 3
11 11 132 8 139 -3 4 -6 15 -6 31 0 33 13 141 13 149 0 4 -6 15 -6 31 0 34 13
167 13 159 0 -4 -7 3 -7 20 0 35 13 168 13 160 0 -4 -7 3 -7 20 0 35 13 168
13 160 0 -10 -16 2 -12 21 7 12 12 37 17 93 19 42 1 82 3 89 3 9 1 11 8 7 21
-5 16 0 23 26 34 30 13 31 14 11 20 -24 8 -29 31 -9 39 6 3 -1 6 -16 6 -16 1
-26 5 -22 10 3 5 0 13 -6 17 -8 4 -7 9 2 15 11 7 10 9 -5 9 -13 0 -17 5 -13
20 3 12 -1 24 -11 30 -15 8 -15 11 -2 20 13 8 11 11 -8 16 -16 5 -21 12 -17
24 3 11 0 20 -10 23 -8 4 -12 13 -9 22 3 8 1 15 -5 15 -6 0 -8 6 -5 14 3 8 -3
20 -14 27 -10 8 -36 49 -57 92 l-39 77 -43 0 c-50 0 -58 16 -10 23 23 3 1679
10 1940 7 l27 0 0 1950 0 1950 -2625 0 -2625 -1 0 -1724z m103 -542 c-16 -16
-33 -35 -36 -43 -3 -8 -6 4 -6 28 -1 42 -1 42 36 42 l37 0 -31 -27z m386 -3
c-34 -30 -49 -27 -49 13 0 13 9 17 41 17 l40 0 -32 -30z m1023 -7 c-36 -37
-37 -37 -40 -15 -6 39 5 52 42 52 l35 0 -37 -37z m367 10 c1 11 9 17 23 17 21
0 21 -1 -8 -32 -16 -18 -30 -35 -31 -37 -2 -2 -3 13 -2 35 0 31 2 35 9 19 7
-17 9 -17 9 -2z m131 5 c0 6 7 12 15 12 21 0 19 -16 -3 -32 -11 -7 -21 -20
-25 -28 -3 -8 -6 3 -6 25 -1 29 2 36 9 25 6 -10 10 -11 10 -2z m154 -3 c-6
-15 -44 -41 -44 -30 0 3 6 14 12 25 15 23 40 27 32 5z m103 -1 c6 10 15 17 22
15 7 -3 -1 -18 -19 -37 l-30 -33 1 38 c0 28 2 33 8 18 7 -18 8 -18 18 -1z
m-2167 -58 c0 -2 -7 -7 -16 -10 -8 -3 -12 -2 -9 4 6 10 25 14 25 6z m15 -66
c-21 -23 -32 -25 -38 -7 -2 6 -3 3 -1 -8 2 -11 -1 -27 -6 -35 -7 -11 -10 -3
-10 28 0 42 0 42 37 42 35 0 36 0 18 -20z m374 -10 c-34 -30 -52 -33 -29 -4
12 13 11 17 -1 25 -10 6 -3 9 24 9 l38 0 -32 -30z m1030 0 c-34 -30 -52 -33
-29 -4 12 13 11 17 -1 25 -10 6 -3 9 24 9 l38 0 -32 -30z m396 10 c-21 -23
-32 -25 -38 -7 -2 6 -3 3 -1 -8 2 -11 -1 -27 -6 -35 -7 -11 -10 -3 -10 28 0
42 0 42 37 42 35 0 36 0 18 -20z m785 -140 l0 -60 60 0 c47 0 60 -3 60 -15 0
-12 -13 -15 -60 -15 l-60 0 0 -60 c0 -47 -3 -60 -15 -60 -12 0 -15 13 -15 60
l0 60 -60 0 c-65 0 -80 16 -35 37 14 6 25 7 25 2 0 -10 31 -12 54 -3 9 4 16
17 16 33 l-1 26 -20 -25 -21 -24 4 34 c2 27 7 34 21 32 11 -2 17 4 17 18 0 11
7 20 15 20 12 0 15 -13 15 -60z m-2583 13 c-13 -13 -19 -14 -31 -3 -10 7 -16
8 -16 2 0 -6 6 -12 13 -15 9 -3 7 -10 -5 -23 -17 -18 -18 -17 -18 12 0 38 1
38 41 41 30 2 32 1 16 -14z m393 12 c0 -1 -13 -16 -30 -33 l-30 -32 0 28 c0
16 2 31 4 33 5 4 56 9 56 4z m233 -27 c-18 -19 -29 -25 -32 -16 -2 6 1 14 8
16 6 2 11 8 11 14 0 6 -7 7 -16 4 -8 -3 -13 -2 -10 2 3 5 19 9 36 9 l31 0 -28
-29z m157 28 c0 -1 -16 -17 -35 -36 l-35 -34 0 36 c0 34 1 36 35 36 19 0 35
-1 35 -2z m116 -14 c-14 -15 -18 -15 -26 -2 -5 8 -12 11 -17 7 -4 -5 -1 -12 7
-17 13 -8 13 -12 -2 -27 -17 -16 -18 -16 -18 13 0 38 3 41 42 42 29 1 30 0 14
-16z m134 9 c-1 -12 -51 -53 -57 -47 -4 3 -1 12 5 18 7 7 12 17 12 23 0 5 -5
3 -10 -5 -8 -13 -10 -13 -10 1 0 11 9 16 30 16 17 0 30 -3 30 -6z m260 4 c0
-1 -13 -16 -30 -33 l-30 -32 0 28 c0 16 2 31 4 33 5 4 56 9 56 4z m103 -27
c-16 -17 -29 -24 -32 -17 -2 6 3 15 10 20 11 7 12 11 1 17 -8 6 -2 9 18 9 l31
0 -28 -29z m126 -4 c-32 -33 -34 -34 -37 -14 -6 35 4 47 38 48 l33 1 -34 -35z
m281 29 c0 -2 -13 -18 -30 -35 l-30 -30 0 30 c0 16 2 31 4 33 6 6 56 8 56 2z
m640 0 c0 -2 -13 -18 -30 -35 l-30 -30 0 30 c0 16 2 31 4 33 6 6 56 8 56 2z
m-2410 -27 c0 -3 -4 -8 -10 -11 -5 -3 -10 -1 -10 4 0 6 5 11 10 11 6 0 10 -2
10 -4z m10 -46 c0 -5 -5 -10 -11 -10 -5 0 -7 5 -4 10 3 6 8 10 11 10 2 0 4 -4
4 -10z m770 0 c0 -5 -5 -10 -11 -10 -5 0 -7 5 -4 10 3 6 8 10 11 10 2 0 4 -4
4 -10z m130 0 c0 -5 -5 -10 -11 -10 -5 0 -7 5 -4 10 3 6 8 10 11 10 2 0 4 -4
4 -10z m80 6 c0 -2 -8 -10 -17 -17 -16 -13 -17 -12 -4 4 13 16 21 21 21 13z
m50 -6 c0 -5 -5 -10 -11 -10 -5 0 -7 5 -4 10 3 6 8 10 11 10 2 0 4 -4 4 -10z
m510 0 c0 -5 -5 -10 -11 -10 -5 0 -7 5 -4 10 3 6 8 10 11 10 2 0 4 -4 4 -10z
m210 6 c0 -2 -8 -10 -17 -17 -16 -13 -17 -12 -4 4 13 16 21 21 21 13z m50 -6
c0 -5 -5 -10 -11 -10 -5 0 -7 5 -4 10 3 6 8 10 11 10 2 0 4 -4 4 -10z m590 6
c0 -2 -8 -10 -17 -17 -16 -13 -17 -12 -4 4 13 16 21 21 21 13z m-1035 -16 c-3
-5 -12 -10 -18 -10 -7 0 -6 4 3 10 19 12 23 12 15 0z m-1397 -53 c-9 -8 -26
-24 -37 -38 l-20 -24 -1 38 c0 36 1 37 38 37 32 -1 35 -2 20 -13z m112 -18
c-34 -35 -55 -32 -24 3 17 19 17 21 2 15 -10 -4 -18 -2 -18 3 0 6 16 10 36 10
l36 0 -32 -31z m145 15 c-11 -8 -28 -25 -37 -37 -18 -22 -18 -22 -18 16 0 36
1 37 38 37 35 -1 36 -1 17 -16z m115 -14 c-18 -16 -34 -30 -36 -30 -2 0 -4 14
-4 30 0 28 3 30 36 30 l36 0 -32 -30z m258 1 c-31 -28 -52 -25 -29 3 9 11 9
15 -1 19 -7 3 4 6 25 6 l37 1 -32 -29z m380 -6 c-30 -31 -33 -32 -36 -14 -6
34 6 49 38 49 l31 0 -33 -35z m389 3 c-20 -21 -33 -28 -35 -20 -2 7 1 19 8 27
8 10 8 14 -2 18 -7 3 3 6 24 6 l36 1 -31 -32z m401 19 c-9 -8 -26 -24 -37 -38
l-20 -24 -1 38 c0 36 1 37 38 37 32 -1 35 -2 20 -13z m112 -17 c-18 -17 -35
-28 -38 -25 -3 3 0 11 6 17 15 15 16 31 0 22 -7 -4 -8 -3 -4 4 4 7 21 12 38
12 l30 0 -32 -30z m143 15 c-12 -9 -29 -26 -38 -38 -15 -21 -15 -21 -15 16 0
36 1 37 37 37 37 0 37 0 16 -15z m137 8 c-8 -4 -22 -16 -31 -27 -10 -12 -21
-18 -25 -14 -4 4 -2 14 5 22 9 11 9 15 -1 19 -7 3 5 5 27 5 22 0 33 -2 25 -5z
m-1775 -33 c-3 -5 -12 -10 -18 -10 -7 0 -6 4 3 10 19 12 23 12 15 0z m1415 6
c0 -3 -4 -8 -10 -11 -5 -3 -10 -1 -10 4 0 6 5 11 10 11 6 0 10 -2 10 -4z m125
-6 c-3 -5 -11 -10 -16 -10 -6 0 -7 5 -4 10 3 6 11 10 16 10 6 0 7 -4 4 -10z
m-1915 -40 c0 -5 -5 -10 -11 -10 -5 0 -7 5 -4 10 3 6 8 10 11 10 2 0 4 -4 4
-10z m130 0 c0 -5 -5 -10 -11 -10 -5 0 -7 5 -4 10 3 6 8 10 11 10 2 0 4 -4 4
-10z m80 6 c0 -2 -8 -10 -17 -17 -16 -13 -17 -12 -4 4 13 16 21 21 21 13z m50
-6 c0 -5 -5 -10 -11 -10 -5 0 -7 5 -4 10 3 6 8 10 11 10 2 0 4 -4 4 -10z m130
0 c0 -5 -5 -10 -11 -10 -5 0 -7 5 -4 10 3 6 8 10 11 10 2 0 4 -4 4 -10z m640
0 c0 -5 -5 -10 -11 -10 -5 0 -7 5 -4 10 3 6 8 10 11 10 2 0 4 -4 4 -10z m720
6 c0 -2 -7 -9 -15 -16 -13 -11 -14 -10 -9 4 5 14 24 23 24 12z m50 -6 c0 -5
-5 -10 -11 -10 -5 0 -7 5 -4 10 3 6 8 10 11 10 2 0 4 -4 4 -10z m70 0 c0 -5
-5 -10 -11 -10 -5 0 -7 5 -4 10 3 6 8 10 11 10 2 0 4 -4 4 -10z m60 0 c0 -5
-5 -10 -11 -10 -5 0 -7 5 -4 10 3 6 8 10 11 10 2 0 4 -4 4 -10z m70 1 c0 -5
-7 -12 -16 -15 -14 -5 -15 -4 -4 9 14 17 20 19 20 6z m-1410 -5 c0 -2 -7 -7
-16 -10 -8 -3 -12 -2 -9 4 6 10 25 14 25 6z m770 0 c0 -2 -7 -7 -16 -10 -8 -3
-12 -2 -9 4 6 10 25 14 25 6z m-1390 -53 c-8 -3 -27 -20 -42 -36 l-28 -31 0
37 c0 37 0 37 43 36 23 0 35 -3 27 -6z m362 -18 c-30 -25 -56 -35 -34 -13 15
15 16 32 2 23 -5 -3 -10 -1 -10 4 0 6 16 11 36 11 l36 0 -30 -25z m271 10
c-12 -9 -29 -26 -38 -38 -15 -21 -15 -21 -15 16 0 36 1 37 37 37 37 0 37 0 16
-15z m384 3 c-9 -7 -25 -24 -37 -37 l-20 -24 0 36 c0 36 1 37 37 37 32 0 34
-2 20 -12z m386 -3 c-12 -9 -29 -26 -38 -38 -15 -21 -15 -21 -15 16 0 36 1 37
37 37 37 0 37 0 16 -15z m354 -1 c6 10 15 17 21 15 6 -2 -3 -19 -19 -37 l-29
-32 1 37 c0 29 2 33 8 18 7 -18 8 -18 18 -1z m640 0 c6 10 15 17 21 15 6 -2
-3 -19 -19 -37 l-29 -32 1 37 c0 29 2 33 8 18 7 -18 8 -18 18 -1z m123 4 c0 6
5 12 10 12 15 0 12 -28 -4 -37 -7 -4 -16 -15 -19 -23 -3 -8 -6 3 -6 25 -1 29
2 36 9 25 6 -10 10 -11 10 -2z m-1850 -22 c0 -2 -7 -7 -16 -10 -8 -3 -12 -2
-9 4 6 10 25 14 25 6z m-250 -46 c0 -5 -5 -10 -11 -10 -5 0 -7 5 -4 10 3 6 8
10 11 10 2 0 4 -4 4 -10z m590 6 c0 -3 -4 -8 -10 -11 -5 -3 -10 -1 -10 4 0 6
5 11 10 11 6 0 10 -2 10 -4z m50 -6 c0 -5 -5 -10 -11 -10 -5 0 -7 5 -4 10 3 6
8 10 11 10 2 0 4 -4 4 -10z m335 0 c-3 -5 -12 -10 -18 -10 -7 0 -6 4 3 10 19
12 23 12 15 0z m-2 -67 c-16 -16 -33 -35 -36 -43 -3 -8 -6 4 -6 28 -1 42 -1
42 36 42 l37 0 -31 -27z m376 -10 c-18 -21 -35 -40 -36 -42 -2 -2 -3 14 -3 37
0 42 0 42 37 42 l37 0 -35 -37z m639 -1 c-18 -20 -34 -39 -35 -41 -2 -2 -3 14
-3 36 0 40 1 41 36 41 l36 0 -34 -36z m-2424 13 c-6 -15 -44 -41 -44 -30 0 3
6 14 12 25 15 23 40 27 32 5z m376 -10 c-13 -14 -27 -25 -32 -25 -15 0 26 49
41 50 10 0 7 -8 -9 -25z m240 13 c0 6 7 12 15 12 21 0 19 -16 -3 -32 -11 -7
-21 -20 -25 -28 -3 -8 -6 3 -6 25 -1 29 2 36 9 25 6 -10 10 -11 10 -2z m387
-4 c6 10 15 17 22 15 7 -3 -1 -18 -19 -37 l-30 -33 1 38 c0 28 2 33 8 18 7
-18 8 -18 18 -1z m403 -58 c0 -2 -7 -7 -16 -10 -8 -3 -12 -2 -9 4 6 10 25 14
25 6z m-1407 -73 c-16 -16 -33 -35 -36 -43 -3 -9 -6 -4 -6 12 -1 14 5 29 12
31 9 4 8 8 -3 16 -12 8 -6 11 24 11 l40 0 -31 -27z m376 -10 c-18 -21 -35 -40
-36 -42 -2 -2 -3 14 -3 37 0 42 0 42 37 42 l37 0 -35 -37z m276 17 c-22 -25
-35 -26 -35 -2 0 14 -2 15 -10 2 -5 -8 -10 -10 -10 -4 0 17 12 24 43 24 29 0
30 0 12 -20z m123 -2 c-13 -13 -29 -29 -35 -37 -11 -12 -13 -8 -13 22 0 36 1
37 35 37 l36 0 -23 -22z m120 -7 c-18 -16 -35 -25 -37 -19 -2 6 3 14 10 19 12
8 12 11 -1 19 -11 7 -6 10 23 10 l37 0 -32 -29z m161 27 c-2 -2 -21 -19 -42
-37 l-37 -35 0 37 c0 37 0 37 42 37 23 0 39 -1 37 -2z m361 -18 c-12 -11 -28
-27 -36 -37 -12 -16 -13 -14 -14 20 0 36 1 37 37 37 l36 0 -23 -20z m387 3
c-15 -16 -19 -16 -27 -3 -5 8 -12 11 -17 7 -4 -5 -1 -12 7 -17 13 -8 13 -12
-2 -27 -17 -16 -18 -16 -18 20 0 36 1 37 37 37 36 0 36 -1 20 -17z m-1187 -33
c0 -5 -4 -10 -10 -10 -5 0 -10 5 -10 10 0 6 5 10 10 10 6 0 10 -4 10 -10z m80
-30 c0 -5 -5 -10 -11 -10 -5 0 -7 5 -4 10 3 6 8 10 11 10 2 0 4 -4 4 -10z m70
-5 c-7 -9 -15 -13 -19 -10 -3 3 1 10 9 15 21 14 24 12 10 -5z m640 0 c-7 -9
-15 -13 -19 -10 -3 3 1 10 9 15 21 14 24 12 10 -5z m60 5 c0 -5 -5 -10 -11
-10 -5 0 -7 5 -4 10 3 6 8 10 11 10 2 0 4 -4 4 -10z m380 0 c0 -5 -5 -10 -11
-10 -5 0 -7 5 -4 10 3 6 8 10 11 10 2 0 4 -4 4 -10z m-1210 -4 c0 -3 -4 -8
-10 -11 -5 -3 -10 -1 -10 4 0 6 5 11 10 11 6 0 10 -2 10 -4z m390 0 c0 -2 -7
-7 -16 -10 -8 -3 -12 -2 -9 4 6 10 25 14 25 6z m1634 -387 c5 -5 8 -53 7 -112
l-1 -48 -77 3 -78 3 -3 77 c-2 67 -1 77 15 81 21 5 132 2 137 -4z"/>
<path d="M450 2984 c0 -8 5 -12 10 -9 6 3 10 10 10 16 0 5 -4 9 -10 9 -5 0
-10 -7 -10 -16z"/>
<path d="M1480 2984 c0 -8 5 -12 10 -9 6 3 10 10 10 16 0 5 -4 9 -10 9 -5 0
-10 -7 -10 -16z"/>
<path d="M840 2730 c0 -5 5 -10 10 -10 6 0 10 5 10 10 0 6 -4 10 -10 10 -5 0
-10 -4 -10 -10z"/>
<path d="M1610 2730 c0 -5 5 -10 10 -10 6 0 10 5 10 10 0 6 -4 10 -10 10 -5 0
-10 -4 -10 -10z"/>
<path d="M70 2599 c0 -5 5 -7 10 -4 6 3 10 8 10 11 0 2 -4 4 -10 4 -5 0 -10
-5 -10 -11z"/>
<path d="M1100 2599 c0 -5 5 -7 10 -4 6 3 10 8 10 11 0 2 -4 4 -10 4 -5 0 -10
-5 -10 -11z"/>
<path d="M1870 2599 c0 -5 5 -7 10 -4 6 3 10 8 10 11 0 2 -4 4 -10 4 -5 0 -10
-5 -10 -11z"/>
<path d="M70 2469 c0 -5 5 -7 10 -4 6 3 10 8 10 11 0 2 -4 4 -10 4 -5 0 -10
-5 -10 -11z"/>
<path d="M1100 2469 c0 -5 5 -7 10 -4 6 3 10 8 10 11 0 2 -4 4 -10 4 -5 0 -10
-5 -10 -11z"/>
<path d="M1870 2344 c0 -8 5 -12 10 -9 6 3 10 10 10 16 0 5 -4 9 -10 9 -5 0
-10 -7 -10 -16z"/>
<path d="M2510 2344 c0 -8 5 -12 10 -9 6 3 10 10 10 16 0 5 -4 9 -10 9 -5 0
-10 -7 -10 -16z"/>
<path d="M460 2214 c0 -8 5 -12 10 -9 6 3 10 10 10 16 0 5 -4 9 -10 9 -5 0
-10 -7 -10 -16z"/>
<path d="M1100 2220 c0 -5 5 -10 10 -10 6 0 10 5 10 10 0 6 -4 10 -10 10 -5 0
-10 -4 -10 -10z"/>
<path d="M2630 1690 l0 -70 70 0 70 0 0 70 c0 43 -4 70 -11 70 -6 0 -9 -22 -8
-60 1 -33 -1 -63 -6 -67 -4 -5 -5 -2 -1 5 5 9 -6 12 -43 12 l-51 0 -1 38 c-1
20 -1 45 0 55 1 9 -3 17 -8 17 -7 0 -11 -27 -11 -70z"/>
<path d="M808 763 c7 -3 16 -2 19 1 4 3 -2 6 -13 5 -11 0 -14 -3 -6 -6z"/>
<path d="M88 583 c7 -3 16 -2 19 1 4 3 -2 6 -13 5 -11 0 -14 -3 -6 -6z"/>
<path d="M380 465 c-11 -13 -10 -14 4 -9 9 3 16 10 16 15 0 13 -6 11 -20 -6z"/>
<path d="M3635 470 c-19 -8 -19 -9 3 -9 12 -1 22 4 22 9 0 6 -1 10 -2 9 -2 0
-12 -4 -23 -9z"/>
<path d="M2628 463 c7 -3 16 -2 19 1 4 3 -2 6 -13 5 -11 0 -14 -3 -6 -6z"/>
<path d="M3028 463 c6 -2 18 -2 25 0 6 3 1 5 -13 5 -14 0 -19 -2 -12 -5z"/>
<path d="M3228 463 c6 -2 18 -2 25 0 6 3 1 5 -13 5 -14 0 -19 -2 -12 -5z"/>
<path d="M3433 463 c9 -2 23 -2 30 0 6 3 -1 5 -18 5 -16 0 -22 -2 -12 -5z"/>
<path d="M3828 463 c6 -2 18 -2 25 0 6 3 1 5 -13 5 -14 0 -19 -2 -12 -5z"/>
<path d="M1178 453 c7 -3 16 -2 19 1 4 3 -2 6 -13 5 -11 0 -14 -3 -6 -6z"/>
<path d="M2620 390 c-12 -8 -10 -10 8 -10 13 0 20 4 17 10 -7 12 -6 12 -25 0z"/>
<path d="M3040 389 c0 -5 5 -7 10 -4 6 3 10 8 10 11 0 2 -4 4 -10 4 -5 0 -10
-5 -10 -11z"/>
<path d="M3460 389 c0 -5 5 -7 10 -4 6 3 10 8 10 11 0 2 -4 4 -10 4 -5 0 -10
-5 -10 -11z"/>
<path d="M1148 383 c7 -3 16 -2 19 1 4 3 -2 6 -13 5 -11 0 -14 -3 -6 -6z"/>
<path d="M1553 383 c9 -2 25 -2 35 0 9 3 1 5 -18 5 -19 0 -27 -2 -17 -5z"/>
<path d="M1788 383 c7 -3 16 -2 19 1 4 3 -2 6 -13 5 -11 0 -14 -3 -6 -6z"/>
<path d="M1980 381 c0 -5 9 -7 20 -4 11 3 20 7 20 9 0 2 -9 4 -20 4 -11 0 -20
-4 -20 -9z"/>
<path d="M2183 383 c9 -2 23 -2 30 0 6 3 -1 5 -18 5 -16 0 -22 -2 -12 -5z"/>
<path d="M2393 383 c9 -2 23 -2 30 0 6 3 -1 5 -18 5 -16 0 -22 -2 -12 -5z"/>
<path d="M288 373 c6 -2 18 -2 25 0 6 3 1 5 -13 5 -14 0 -19 -2 -12 -5z"/>
<path d="M4980 350 c0 -5 5 -10 11 -10 5 0 7 5 4 10 -3 6 -8 10 -11 10 -2 0
-4 -4 -4 -10z"/>
<path d="M2392 323 c-6 -3 -10 -9 -6 -14 7 -12 41 -12 48 0 7 10 -23 20 -42
14z"/>
<path d="M5188 323 c7 -3 16 -2 19 1 4 3 -2 6 -13 5 -11 0 -14 -3 -6 -6z"/>
<path d="M230 309 c12 -9 11 -10 -7 -6 -13 3 -23 1 -23 -4 0 -12 47 -12 54 0
3 5 -1 12 -10 15 -24 9 -31 7 -14 -5z"/>
<path d="M1310 310 l-25 -8 28 -1 c15 -1 27 4 27 9 0 6 -1 10 -2 9 -2 -1 -14
-5 -28 -9z"/>
<path d="M1745 311 c-23 -5 -26 -8 -13 -13 9 -4 24 0 35 7 10 8 16 14 13 13
-3 0 -18 -3 -35 -7z"/>
<path d="M1960 310 c-21 -7 -21 -8 -5 -9 11 0 27 4 35 9 18 11 5 11 -30 0z"/>
<path d="M2175 310 c-28 -7 -28 -8 -5 -9 14 0 32 4 40 9 17 11 8 11 -35 0z"/>
<path d="M2625 310 c-3 -6 1 -7 9 -4 18 7 21 14 7 14 -6 0 -13 -4 -16 -10z"/>
<path d="M2840 309 c0 -5 5 -7 10 -4 6 3 10 8 10 11 0 2 -4 4 -10 4 -5 0 -10
-5 -10 -11z"/>
<path d="M3030 316 c0 -2 7 -6 15 -10 8 -3 15 -1 15 4 0 6 -7 10 -15 10 -8 0
-15 -2 -15 -4z"/>
<path d="M3250 310 c19 -13 30 -13 30 0 0 6 -10 10 -22 10 -19 0 -20 -2 -8
-10z"/>
<path d="M3498 313 c7 -3 16 -2 19 1 4 3 -2 6 -13 5 -11 0 -14 -3 -6 -6z"/>
<path d="M644 301 c3 -5 15 -7 26 -4 28 7 25 13 -6 13 -14 0 -23 -4 -20 -9z"/>
<path d="M878 303 c6 -2 18 -2 25 0 6 3 1 5 -13 5 -14 0 -19 -2 -12 -5z"/>
<path d="M1514 301 c3 -5 15 -7 26 -4 28 7 25 13 -6 13 -14 0 -23 -4 -20 -9z"/>
<path d="M4420 240 c-13 -8 -12 -10 3 -10 9 0 17 5 17 10 0 12 -1 12 -20 0z"/>
<path d="M4640 240 c-12 -7 -10 -9 7 -7 12 0 19 5 17 9 -6 10 -6 10 -24 -2z"/>
<path d="M1047 223 c6 -16 25 -13 31 5 2 6 -6 10 -16 9 -12 -1 -18 -6 -15 -14z"/>
<path d="M1277 229 c-9 -6 -22 -7 -29 -3 -7 4 -8 3 -4 -4 9 -14 52 -16 61 -3
8 15 -8 20 -28 10z"/>
<path d="M1935 230 c-18 -8 -17 -9 8 -9 16 -1 26 3 22 9 -3 6 -7 10 -8 9 -1 0
-11 -4 -22 -9z"/>
<path d="M2615 230 c-19 -8 -19 -9 3 -9 12 -1 22 4 22 9 0 6 -1 10 -2 9 -2 0
-12 -4 -23 -9z"/>
<path d="M3065 230 l-30 -8 27 -1 c15 0 30 4 33 9 3 6 5 9 3 9 -2 -1 -16 -5
-33 -9z"/>
<path d="M3278 227 c15 -7 26 -7 33 0 6 6 -1 10 -23 10 -30 0 -30 -1 -10 -10z"/>
<path d="M3510 230 c-13 -9 -13 -10 0 -10 8 0 22 5 30 10 13 9 13 10 0 10 -8
0 -22 -5 -30 -10z"/>
<path d="M3720 236 c0 -9 30 -14 35 -6 4 6 -3 10 -14 10 -12 0 -21 -2 -21 -4z"/>
<path d="M4198 233 c7 -3 16 -2 19 1 4 3 -2 6 -13 5 -11 0 -14 -3 -6 -6z"/>
<path d="M1015 220 c3 -5 11 -10 16 -10 6 0 7 5 4 10 -3 6 -11 10 -16 10 -6 0
-7 -4 -4 -10z"/>
<path d="M1490 221 c0 -5 9 -7 20 -4 11 3 20 7 20 9 0 2 -9 4 -20 4 -11 0 -20
-4 -20 -9z"/>
<path d="M1703 223 c9 -2 25 -2 35 0 9 3 1 5 -18 5 -19 0 -27 -2 -17 -5z"/>
<path d="M2163 223 c9 -2 23 -2 30 0 6 3 -1 5 -18 5 -16 0 -22 -2 -12 -5z"/>
<path d="M2408 223 c7 -3 16 -2 19 1 4 3 -2 6 -13 5 -11 0 -14 -3 -6 -6z"/>
<path d="M2828 223 c6 -2 18 -2 25 0 6 3 1 5 -13 5 -14 0 -19 -2 -12 -5z"/>
<path d="M98 213 c7 -3 16 -2 19 1 4 3 -2 6 -13 5 -11 0 -14 -3 -6 -6z"/>
<path d="M138 213 c6 -2 18 -2 25 0 6 3 1 5 -13 5 -14 0 -19 -2 -12 -5z"/>
<path d="M363 213 c9 -2 23 -2 30 0 6 3 -1 5 -18 5 -16 0 -22 -2 -12 -5z"/>
<path d="M576 211 c-3 -4 6 -6 19 -3 14 2 25 6 25 8 0 8 -39 4 -44 -5z"/>
<path d="M813 213 c9 -2 23 -2 30 0 6 3 -1 5 -18 5 -16 0 -22 -2 -12 -5z"/>
<path d="M4910 186 c0 -2 8 -10 18 -17 15 -13 16 -12 3 4 -13 16 -21 21 -21
13z"/>
<path d="M3540 170 c0 -5 5 -10 11 -10 5 0 7 5 4 10 -3 6 -8 10 -11 10 -2 0
-4 -4 -4 -10z"/>
<path d="M4000 170 c0 -5 5 -10 11 -10 5 0 7 5 4 10 -3 6 -8 10 -11 10 -2 0
-4 -4 -4 -10z"/>
<path d="M4460 170 c0 -5 5 -10 11 -10 5 0 7 5 4 10 -3 6 -8 10 -11 10 -2 0
-4 -4 -4 -10z"/>
<path d="M537 140 c-16 -20 -12 -27 8 -12 9 6 19 32 12 32 -1 0 -10 -9 -20
-20z"/>
<path d="M1000 145 c0 -12 -6 -15 -20 -10 -11 4 -20 2 -20 -4 0 -12 39 -15 56
-3 9 5 8 11 -2 20 -12 11 -14 10 -14 -3z"/>
<path d="M1460 145 c0 -12 -6 -15 -22 -10 -18 5 -20 4 -8 -4 16 -11 60 -15 60
-5 0 3 -7 12 -15 20 -13 14 -15 14 -15 -1z"/>
<path d="M2400 151 c0 -5 -15 -12 -32 -14 l-33 -4 37 -1 c37 -2 58 11 38 23
-5 3 -10 2 -10 -4z"/>
<path d="M2846 148 c5 -8 1 -9 -12 -4 -15 6 -16 4 -7 -5 7 -7 22 -9 38 -5 30
8 29 14 -4 21 -14 3 -19 0 -15 -7z"/>
<path d="M3306 144 c-3 -9 2 -14 14 -14 26 0 34 17 11 23 -12 3 -22 -1 -25 -9z"/>
<path d="M4695 150 c-19 -8 -19 -9 3 -9 12 -1 22 4 22 9 0 6 -1 10 -2 9 -2 0
-12 -4 -23 -9z"/>
<path d="M5165 150 c-3 -5 1 -10 9 -10 9 0 16 5 16 10 0 6 -4 10 -9 10 -6 0
-13 -4 -16 -10z"/>
<path d="M304 142 c4 -6 -5 -12 -21 -15 -26 -4 -26 -4 5 -6 32 -1 42 11 20 25
-6 4 -8 3 -4 -4z"/>
<path d="M3070 138 c0 -11 22 -10 40 2 11 8 9 9 -12 8 -16 -1 -28 -6 -28 -10z"/>
<path d="M3524 139 c12 -8 25 -8 40 -1 18 9 16 11 -19 11 -33 0 -37 -1 -21
-10z"/>
<path d="M3758 143 c12 -2 30 -2 40 0 9 3 -1 5 -23 4 -22 0 -30 -2 -17 -4z"/>
<path d="M3988 143 c12 -2 30 -2 40 0 9 3 -1 5 -23 4 -22 0 -30 -2 -17 -4z"/>
<path d="M4220 146 c0 -9 40 -13 46 -5 3 5 -6 9 -20 9 -14 0 -26 -2 -26 -4z"/>
<path d="M4463 143 c9 -2 25 -2 35 0 9 3 1 5 -18 5 -19 0 -27 -2 -17 -5z"/>
<path d="M4918 143 c6 -2 18 -2 25 0 6 3 1 5 -13 5 -14 0 -19 -2 -12 -5z"/>
<path d="M753 132 c-13 -4 -19 -12 -15 -18 5 -8 13 -5 26 7 11 11 18 19 15 18
-2 -1 -14 -4 -26 -7z"/>
<path d="M1209 127 c7 -7 18 -7 33 0 22 10 21 11 -10 10 -22 0 -30 -3 -23 -10z"/>
<path d="M1669 131 c12 -8 51 -4 51 5 0 2 -15 4 -32 4 -23 0 -29 -3 -19 -9z"/>
<path d="M1880 136 c0 -9 50 -12 62 -5 8 6 -1 9 -24 9 -21 0 -38 -2 -38 -4z"/>
<path d="M2120 136 c0 -9 37 -12 55 -5 15 6 11 8 -17 8 -21 1 -38 -1 -38 -3z"/>
<path d="M2618 133 c7 -3 16 -2 19 1 4 3 -2 6 -13 5 -11 0 -14 -3 -6 -6z"/>
<path d="M43 123 c9 -2 25 -2 35 0 9 3 1 5 -18 5 -19 0 -27 -2 -17 -5z"/>
<path d="M4280 90 c0 -5 5 -10 11 -10 5 0 7 5 4 10 -3 6 -8 10 -11 10 -2 0 -4
-4 -4 -10z"/>
<path d="M247 73 c-4 -3 -7 -11 -7 -17 0 -6 5 -5 12 2 6 6 9 14 7 17 -3 3 -9
2 -12 -2z"/>
<path d="M3100 70 c0 -5 5 -10 11 -10 5 0 7 5 4 10 -3 6 -8 10 -11 10 -2 0 -4
-4 -4 -10z"/>
<path d="M220 44 c0 -9 -6 -14 -13 -11 -16 6 -43 -8 -31 -15 5 -3 23 0 40 6
27 9 30 13 18 24 -12 11 -14 10 -14 -4z"/>
<path d="M460 45 c0 -8 8 -15 18 -15 13 0 14 2 3 9 -11 7 -11 9 0 14 10 4 9 6
-3 6 -10 1 -18 -6 -18 -14z"/>
<path d="M3340 50 c-24 -8 -23 -8 8 -9 20 -1 31 3 27 9 -3 6 -7 10 -8 9 -1 -1
-13 -5 -27 -9z"/>
<path d="M3575 50 c-17 -7 -14 -9 13 -9 20 -1 31 3 27 9 -7 12 -13 12 -40 0z"/>
<path d="M3815 50 c-19 -8 -19 -9 2 -9 12 -1 25 4 28 9 7 12 -2 12 -30 0z"/>
<path d="M4055 50 c-19 -8 -19 -9 2 -9 12 -1 25 4 28 9 7 12 -2 12 -30 0z"/>
<path d="M4275 50 c-2 -3 7 -7 20 -8 13 -1 27 3 30 8 4 6 -5 9 -20 8 -15 -2
-28 -5 -30 -8z"/>
<path d="M4525 50 c8 -13 32 -13 40 0 4 6 -5 10 -20 10 -15 0 -24 -4 -20 -10z"/>
<path d="M4770 50 c0 -5 12 -10 28 -10 21 0 24 2 12 10 -20 13 -40 13 -40 0z"/>
<path d="M5008 48 c9 -9 15 -9 24 0 9 9 7 12 -12 12 -19 0 -21 -3 -12 -12z"/>
<path d="M1895 40 c-28 -7 -28 -8 -5 -9 14 0 32 4 40 9 17 11 8 11 -35 0z"/>
<path d="M2043 43 c9 -2 25 -2 35 0 9 3 1 5 -18 5 -19 0 -27 -2 -17 -5z"/>
<path d="M2106 38 c7 -11 45 -10 63 1 9 6 0 9 -27 8 -22 0 -39 -5 -36 -9z"/>
<path d="M2345 40 c3 -5 8 -10 11 -10 2 0 4 5 4 10 0 6 -5 10 -11 10 -5 0 -7
-4 -4 -10z"/>
<path d="M2370 38 c0 -11 22 -10 40 2 11 8 9 9 -12 8 -16 -1 -28 -6 -28 -10z"/>
<path d="M2592 39 c18 -12 46 -11 53 1 3 5 -9 9 -30 8 -23 -1 -31 -4 -23 -9z"/>
<path d="M2830 40 c20 -13 47 -13 55 0 4 6 -9 10 -32 10 -28 0 -34 -3 -23 -10z"/>
<path d="M3060 46 c0 -9 50 -12 62 -5 8 6 -1 9 -24 9 -21 0 -38 -2 -38 -4z"/>
<path d="M420 36 c0 -2 7 -7 16 -10 8 -3 12 -2 9 4 -6 10 -25 14 -25 6z"/>
<path d="M670 30 c0 -5 11 -10 25 -10 14 0 25 5 25 10 0 6 -11 10 -25 10 -14
0 -25 -4 -25 -10z"/>
<path d="M913 29 c11 -7 23 -7 35 0 14 9 11 10 -18 10 -29 0 -32 -1 -17 -10z"/>
<path d="M1158 33 c12 -2 30 -2 40 0 9 3 -1 5 -23 4 -22 0 -30 -2 -17 -4z"/>
<path d="M1398 33 c12 -2 30 -2 40 0 9 3 -1 5 -23 4 -22 0 -30 -2 -17 -4z"/>
<path d="M1633 33 c9 -2 25 -2 35 0 9 3 1 5 -18 5 -19 0 -27 -2 -17 -5z"/>
</g>
</svg>
