<?xml version="1.0" standalone="no"?>
<!DOCTYPE svg PUBLIC "-//W3C//DTD SVG 1.1//EN" "http://www.w3.org/Graphics/SVG/1.1/DTD/svg11.dtd" >
<svg xmlns="http://www.w3.org/2000/svg" xmlns:xlink="http://www.w3.org/1999/xlink" version="1.1">
<metadata></metadata>
<defs>
<font id="minecraftten" horiz-adv-x="1208" >
<font-face units-per-em="2048" ascent="1638" descent="-410" />
<missing-glyph horiz-adv-x="409" />
<glyph unicode="FI" horiz-adv-x="1843" d="M102 0v1434h1004v-287h-574v-287h431v-287h-431v-573h-430zM1311 0v1434h430v-1434h-430z" />
<glyph unicode="FL" horiz-adv-x="2273" d="M102 0v1434h1004v-287h-574v-287h431v-287h-431v-573h-430zM1311 0v1434h430v-1147h430v-287h-860z" />
<glyph horiz-adv-x="0" />
<glyph unicode="&#xd;" horiz-adv-x="409" />
<glyph unicode=" "  horiz-adv-x="409" />
<glyph unicode="&#x09;" horiz-adv-x="409" />
<glyph unicode="&#xa0;" horiz-adv-x="409" />
<glyph unicode="!" horiz-adv-x="634" d="M102 0v430h430v-430h-430zM102 573v861h430v-861h-430z" />
<glyph unicode="&#x22;" d="M102 717v717h430v-717h-430zM676 717v717h430v-717h-430z" />
<glyph unicode="#" horiz-adv-x="1495" d="M102 287v286h144v287h-144v287h144v287h430v-287h143v287h430v-287h144v-287h-144v-287h144v-286h-144v-287h-430v287h-143v-287h-430v287h-144zM676 573h143v287h-143v-287z" />
<glyph unicode="$" d="M102 143v287h574v143h-574v717h359v246h287v-246h358v-286h-574v-144h574v-717h-358v-245h-287v245h-359z" />
<glyph unicode="%" horiz-adv-x="1495" d="M102 0v430h287v287h287v430h287v287h430v-430h-287v-287h-287v-430h-287v-287h-430zM102 1004v430h430v-430h-430zM963 0v430h430v-430h-430z" />
<glyph unicode="&#x26;" horiz-adv-x="1495" d="M102 0v858l144 2v574h717v-574h286v-287h-143v-286h287v-287h-1291zM532 287h144v286h-144v-286zM532 860h144v287h-144v-287z" />
<glyph unicode="'" horiz-adv-x="634" d="M102 717v717h430v-717h-430z" />
<glyph unicode="(" d="M102 287v860h287v287h717v-287h-285v-287h-289v-287h287v-286h287v-287h-717v287h-287z" />
<glyph unicode=")" d="M102 0v287h287v286h287v287h-289v287h-285v287h717v-287h287v-860h-287v-287h-717z" />
<glyph unicode="*" horiz-adv-x="1064" d="M102 573v287h144v287h-144v287h287v-144h287v144h287v-287h-144v-287h144v-287h-287v144h-287v-144h-287z" />
<glyph unicode="+" horiz-adv-x="1064" d="M102 573v287h287v287h287v-287h287v-287h-287v-286h-287v286h-287z" />
<glyph unicode="," horiz-adv-x="634" d="M102 0v430h430v-717h-286v287h-144z" />
<glyph unicode="-" horiz-adv-x="921" d="M102 573v287h717v-287h-717z" />
<glyph unicode="." horiz-adv-x="634" d="M102 0v430h430v-430h-430z" />
<glyph unicode="/" horiz-adv-x="1495" d="M102 0v430h287v287h287v430h287v287h430v-430h-287v-287h-287v-430h-287v-287h-430z" />
<glyph unicode="0" d="M102 0v1434h1004v-1434h-1004zM532 287h144v860h-144v-860z" />
<glyph unicode="1" horiz-adv-x="921" d="M102 1004v286h287v144h430v-1434h-430v1004h-287z" />
<glyph unicode="2" d="M102 0v860h574v287h-574v287h1004v-861h-574v-286h574v-287h-1004z" />
<glyph unicode="3" d="M102 0v287h574v286h-430v287h430v287h-574v287h1004v-1434h-1004z" />
<glyph unicode="4" d="M102 287v573h144v287h143v143h287v144h430v-1434h-430v287h-574zM389 573h287v428h-144v-284h-143v-144z" />
<glyph unicode="5" d="M102 0v287h574v286h-574v861h1004v-287h-574v-287h574v-860h-1004z" />
<glyph unicode="6" d="M102 0v1434h1004v-287h-574v-287h574v-860h-1004zM532 287h144v286h-144v-286z" />
<glyph unicode="7" d="M102 1147v287h1004v-574h-143v-287h-144v-286h-143v-287h-430v287h143v286h143v287h144v287h-574z" />
<glyph unicode="8" d="M102 0v717h144v143h-144v574h1004v-574h-143v-143h143v-717h-1004zM532 287h144v286h-144v-286zM532 860h144v287h-144v-287z" />
<glyph unicode="9" d="M102 0v287h574v286h-574v861h1004v-1434h-1004zM532 860h144v287h-144v-287z" />
<glyph unicode=":" horiz-adv-x="634" d="M102 0v430h430v-430h-430zM102 717v430h430v-430h-430z" />
<glyph unicode=";" horiz-adv-x="634" d="M102 0v430h430v-717h-286v287h-144zM102 717v430h430v-430h-430z" />
<glyph unicode="&#x3c;" d="M102 502v430h287v143h287v144h430v-287h-287v-144h-287v-143h287v-143h287v-287h-430v143h-287v144h-287z" />
<glyph unicode="=" horiz-adv-x="1064" d="M102 287v286h861v-286h-861zM102 860v287h861v-287h-861z" />
<glyph unicode="&#x3e;" d="M102 215v287h287v143h287v143h-287v144h-287v287h430v-144h287v-143h287v-430h-287v-144h-287v-143h-430z" />
<glyph unicode="?" horiz-adv-x="1351" d="M102 860v430h144v144h860v-144h143v-573h-286v-144h-431v287h144v287h-287v-287h-287zM532 0v430h431v-430h-431z" />
<glyph unicode="@" horiz-adv-x="1939" d="M102 -143v1433h144v144h1448v-144h143v-1147h-1096v779h508v-287h-143v-205h301v717h-875v-1147h875v-287h-1161v144h-144z" />
<glyph unicode="A" d="M102 0v1434h1004v-1434h-430v573h-144v-573h-430zM532 860h144v287h-144v-287z" />
<glyph unicode="B" d="M102 0v1434h1004v-574h-143v-143h143v-717h-1004zM532 287h144v286h-144v-286zM532 860h144v287h-144v-287z" />
<glyph unicode="C" horiz-adv-x="1064" d="M102 0v1434h861v-287h-431v-860h431v-287h-861z" />
<glyph unicode="D" d="M102 0v1434h861v-144h143v-1147h-143v-143h-861zM532 287h144v860h-144v-860z" />
<glyph unicode="E" d="M102 0v1434h1004v-287h-574v-287h431v-287h-431v-286h574v-287h-1004z" />
<glyph unicode="F" d="M102 0v1434h1004v-287h-574v-287h431v-287h-431v-573h-430z" />
<glyph unicode="G" d="M102 0v1434h1004v-287h-574v-860h144v573h430v-860h-1004z" />
<glyph unicode="H" d="M102 0v1434h430v-574h144v574h430v-1434h-430v573h-144v-573h-430z" />
<glyph unicode="I" horiz-adv-x="634" d="M102 0v1434h430v-1434h-430z" />
<glyph unicode="J" d="M102 0v573h430v-286h144v1147h430v-1434h-1004z" />
<glyph unicode="K" d="M102 0v1434h430v-430h144v430h430v-574h-287v-143h287v-717h-430v430h-144v-430h-430z" />
<glyph unicode="L" horiz-adv-x="1064" d="M102 0v1434h430v-1147h431v-287h-861z" />
<glyph unicode="M" horiz-adv-x="1638" d="M102 0v1434h430v-287h144v-287h287v287h143v287h430v-1434h-430v573h-143v-286h-287v286h-144v-573h-430z" />
<glyph unicode="N" horiz-adv-x="1351" d="M102 0v1434h430v-287h144v-287h143v574h430v-1434h-430v287h-143v286h-144v-573h-430z" />
<glyph unicode="O" d="M102 0v1434h1004v-1434h-1004zM532 287h144v860h-144v-860z" />
<glyph unicode="P" d="M102 0v1434h1004v-861h-574v-573h-430zM532 860h144v287h-144v-287z" />
<glyph unicode="Q" horiz-adv-x="1249" d="M102 0v1434h1004v-1147h143v-287h-1147zM532 287h144v860h-144v-860z" />
<glyph unicode="R" d="M102 0v1434h1004v-574h-143v-143h143v-717h-430v573h-144v-573h-430zM532 860h144v287h-144v-287z" />
<glyph unicode="S" d="M102 0v287h574v286h-574v861h1004v-287h-574v-287h574v-860h-1004z" />
<glyph unicode="T" d="M102 1147v287h1004v-287h-287v-1147h-430v1147h-287z" />
<glyph unicode="U" d="M102 0v1434h430v-1147h144v1147h430v-1434h-1004z" />
<glyph unicode="V" d="M102 573v861h430v-574h144v574h430v-861h-143v-286h-144v-287h-430v287h-143v286h-144z" />
<glyph unicode="W" horiz-adv-x="1638" d="M102 287v1147h430v-717h144v287h287v-287h143v717h430v-1147h-143v-287h-430v430h-287v-430h-430v287h-144z" />
<glyph unicode="X" d="M102 0v717h287v143h-287v574h430v-430h144v430h430v-574h-287v-143h287v-717h-430v430h-144v-430h-430z" />
<glyph unicode="Y" d="M102 717v717h430v-430h144v430h430v-717h-287v-717h-430v717h-287z" />
<glyph unicode="Z" d="M102 0v717h287v143h287v287h-574v287h1004v-717h-287v-144h-287v-286h574v-287h-1004z" />
<glyph unicode="[" horiz-adv-x="942" d="M102 0v1434h738v-287h-308v-860h308v-287h-738z" />
<glyph unicode="\" horiz-adv-x="1495" d="M102 1004v430h430v-287h287v-430h287v-287h287v-430h-430v287h-287v430h-287v287h-287z" />
<glyph unicode="]" horiz-adv-x="942" d="M102 0v287h308v860h-308v287h738v-1434h-738z" />
<glyph unicode="^" horiz-adv-x="921" d="M102 1004v286h144v144h430v-144h143v-286h-287v143h-143v-143h-287z" />
<glyph unicode="_" horiz-adv-x="1638" d="M102 0h1434v-287h-1434v287z" />
<glyph unicode="`" horiz-adv-x="634" d="M102 1679v287h287v-143h143v-287h-286v143h-144z" />
<glyph unicode="a" d="M102 0v1434h1004v-1434h-430v573h-144v-573h-430zM532 860h144v287h-144v-287z" />
<glyph unicode="b" d="M102 0v1434h1004v-574h-143v-143h143v-717h-1004zM532 287h144v286h-144v-286zM532 860h144v287h-144v-287z" />
<glyph unicode="c" horiz-adv-x="1064" d="M102 0v1434h861v-287h-431v-860h431v-287h-861z" />
<glyph unicode="d" d="M102 0v1434h861v-144h143v-1147h-143v-143h-861zM532 287h144v860h-144v-860z" />
<glyph unicode="e" d="M102 0v1434h1004v-287h-574v-287h431v-287h-431v-286h574v-287h-1004z" />
<glyph unicode="f" d="M102 0v1434h1004v-287h-574v-287h431v-287h-431v-573h-430z" />
<glyph unicode="g" d="M102 0v1434h1004v-287h-574v-860h144v573h430v-860h-1004z" />
<glyph unicode="h" d="M102 0v1434h430v-574h144v574h430v-1434h-430v573h-144v-573h-430z" />
<glyph unicode="i" horiz-adv-x="634" d="M102 0v1434h430v-1434h-430z" />
<glyph unicode="j" d="M102 0v573h430v-286h144v1147h430v-1434h-1004z" />
<glyph unicode="k" d="M102 0v1434h430v-430h144v430h430v-574h-287v-143h287v-717h-430v430h-144v-430h-430z" />
<glyph unicode="l" horiz-adv-x="1064" d="M102 0v1434h430v-1147h431v-287h-861z" />
<glyph unicode="m" horiz-adv-x="1638" d="M102 0v1434h430v-287h144v-287h287v287h143v287h430v-1434h-430v573h-143v-286h-287v286h-144v-573h-430z" />
<glyph unicode="n" horiz-adv-x="1351" d="M102 0v1434h430v-287h144v-287h143v574h430v-1434h-430v287h-143v286h-144v-573h-430z" />
<glyph unicode="o" d="M102 0v1434h1004v-1434h-1004zM532 287h144v860h-144v-860z" />
<glyph unicode="p" d="M102 0v1434h1004v-861h-574v-573h-430zM532 860h144v287h-144v-287z" />
<glyph unicode="q" horiz-adv-x="1249" d="M102 0v1434h1004v-1147h143v-287h-1147zM532 287h144v860h-144v-860z" />
<glyph unicode="r" d="M102 0v1434h1004v-574h-143v-143h143v-717h-430v573h-144v-573h-430zM532 860h144v287h-144v-287z" />
<glyph unicode="s" d="M102 0v287h574v286h-574v861h1004v-287h-574v-287h574v-860h-1004z" />
<glyph unicode="t" d="M102 1147v287h1004v-287h-287v-1147h-430v1147h-287z" />
<glyph unicode="u" d="M102 0v1434h430v-1147h144v1147h430v-1434h-1004z" />
<glyph unicode="v" d="M102 573v861h430v-574h144v574h430v-861h-143v-286h-144v-287h-430v287h-143v286h-144z" />
<glyph unicode="w" horiz-adv-x="1638" d="M102 287v1147h430v-717h144v287h287v-287h143v717h430v-1147h-143v-287h-430v430h-287v-430h-430v287h-144z" />
<glyph unicode="x" d="M102 0v717h287v143h-287v574h430v-430h144v430h430v-574h-287v-143h287v-717h-430v430h-144v-430h-430z" />
<glyph unicode="y" d="M102 717v717h430v-430h144v430h430v-717h-287v-717h-430v717h-287z" />
<glyph unicode="z" d="M102 0v717h287v143h287v287h-574v287h1004v-717h-287v-144h-287v-286h574v-287h-1004z" />
<glyph unicode="{" horiz-adv-x="1064" d="M102 573v287h144v574h717v-287h-285v-287h-146v-287h144v-286h287v-287h-717v573h-144z" />
<glyph unicode="|" horiz-adv-x="634" d="M102 -512v1946h430v-1946h-430z" />
<glyph unicode="}" horiz-adv-x="1064" d="M102 0v287h287v286h143v287h-145v287h-285v287h717v-574h144v-287h-144v-573h-717z" />
<glyph unicode="~" horiz-adv-x="1064" d="M102 1004v286h144v144h286v-144h144v144h287v-287h-144v-143h-287v143h-143v-143h-287z" />
<glyph unicode="&#xa1;" horiz-adv-x="634" d="M102 0v860h430v-860h-430zM102 1004v430h430v-430h-430z" />
<glyph unicode="&#xa2;" horiz-adv-x="1064" d="M102 287v860h287v287h287v-287h287v-287h-431v-287h431v-286h-287v-287h-287v287h-287z" />
<glyph unicode="&#xa3;" d="M102 0v287h144v286h-144v287h144v430h143v144h574v-287h-287v-287h287v-287h-287v-286h430v-287h-1004z" />
<glyph unicode="&#xa5;" d="M102 287v286h287v144h-287v717h430v-430h144v430h430v-717h-287v-144h287v-286h-287v-287h-430v287h-287z" />
<glyph unicode="&#xa6;" horiz-adv-x="634" d="M102 317h430v-829h-430v829zM102 604v830h430v-830h-430z" />
<glyph unicode="&#xa8;" horiz-adv-x="921" d="M102 1536v287h287v-287h-287zM532 1536v287h287v-287h-287z" />
<glyph unicode="&#xa9;" horiz-adv-x="1638" d="M102 287v860h144v143h143v144h860v-144h144v-143h143v-860h-143v-144h-144v-143h-860v143h-143v144h-144zM389 287h143v-144h574v144h143v860h-143v143h-574v-143h-143v-860zM532 430v574h144v143h287v-143h143v-144h-287v-287h287v-143h-143v-143h-287v143h-144z" />
<glyph unicode="&#xab;" horiz-adv-x="1638" d="M102 573v287h213v144h217v143h287v-215h-143v-144h-144v-143h144v-72h143v-286h-287v143h-217v143h-213zM819 573v287h213v144h217v143h287v-215h-143v-144h-144v-143h144v-72h143v-286h-287v143h-217v143h-213z" />
<glyph unicode="&#xac;" horiz-adv-x="1064" d="M102 573v287h861v-573h-287v286h-574z" />
<glyph unicode="&#xad;" horiz-adv-x="921" d="M102 573v287h717v-287h-717z" />
<glyph unicode="&#xae;" horiz-adv-x="1351" d="M102 717v573h144v-573h-144zM246 573v144h143v-144h-143zM246 1290v144h143v-144h-143zM389 430v143h574v-143h-574zM389 717v573h574v-286h-72v-144h72v-143h-215v143h-144v-143h-215zM389 1434v143h574v-143h-574zM604 1004h144v143h-144v-143zM963 573v144h143v-144 h-143zM963 1290v144h143v-144h-143zM1106 717v573h143v-573h-143z" />
<glyph unicode="&#xaf;" horiz-adv-x="921" d="M102 1536v287h717v-287h-717z" />
<glyph unicode="&#xb0;" horiz-adv-x="1064" d="M102 717v573h144v144h573v-144h144v-573h-144v-144h-573v144h-144zM389 860h287v287h-287v-287z" />
<glyph unicode="&#xb1;" horiz-adv-x="1064" d="M102 0v287h861v-287h-861zM102 860v287h287v287h287v-287h287v-287h-287v-287h-287v287h-287z" />
<glyph unicode="&#xb4;" horiz-adv-x="634" d="M102 1536v287h144v143h286v-287h-143v-143h-287z" />
<glyph unicode="&#xb6;" horiz-adv-x="1638" d="M102 860v287h144v287h1290v-1721h-430v860h-143v-860h-431v860h-286v287h-144zM963 860h143v287h-143v-287z" />
<glyph unicode="&#xb7;" horiz-adv-x="634" d="M102 502v430h430v-430h-430z" />
<glyph unicode="&#xb8;" horiz-adv-x="634" d="M102 -225h144v266h286v-553h-430v287z" />
<glyph unicode="&#xbb;" horiz-adv-x="1638" d="M102 287v286h144v72h143v143h-143v144h-144v215h287v-143h217v-144h213v-287h-213v-143h-217v-143h-287zM819 287v286h144v72h143v143h-143v144h-144v215h287v-143h217v-144h213v-287h-213v-143h-217v-143h-287z" />
<glyph unicode="&#xbf;" horiz-adv-x="1351" d="M102 143v574h287v143h430v-287h-143v-286h287v286h286v-430h-143v-143h-860v143h-144zM389 1004v430h430v-430h-430z" />
<glyph unicode="&#xc0;" d="M102 0v1434h1004v-1434h-430v573h-144v-573h-430zM317 1679v287h287v-143h144v-287h-287v143h-144zM532 860h144v287h-144v-287z" />
<glyph unicode="&#xc1;" d="M102 0v1434h1004v-1434h-430v573h-144v-573h-430zM461 1536v287h143v143h287v-287h-143v-143h-287zM532 860h144v287h-144v-287z" />
<glyph unicode="&#xc2;" d="M102 0v1434h1004v-1434h-430v573h-144v-573h-430zM246 1536v287h143v143h430v-143h144v-287h-287v143h-144v-143h-286zM532 860h144v287h-144v-287z" />
<glyph unicode="&#xc3;" d="M102 0v1434h1004v-1434h-430v573h-144v-573h-430zM174 1536v287h143v143h287v-143h144v143h286v-287h-143v-143h-287v143h-143v-143h-287zM532 860h144v287h-144v-287z" />
<glyph unicode="&#xc4;" d="M102 0v1434h1004v-1434h-430v573h-144v-573h-430zM246 1536v287h286v-287h-286zM532 860h144v287h-144v-287zM676 1536v287h287v-287h-287z" />
<glyph unicode="&#xc5;" d="M102 0v1434h287v143h-143v307h143v144h430v-144h144v-307h-144v-143h287v-1434h-430v573h-144v-573h-430zM532 860h144v287h-144v-287zM532 1659h144v143h-144v-143z" />
<glyph unicode="&#xc6;" horiz-adv-x="1781" d="M102 0v1434h1577v-287h-573v-287h430v-287h-430v-286h573v-287h-1003v573h-144v-573h-430zM532 860h144v287h-144v-287z" />
<glyph unicode="&#xc7;" horiz-adv-x="1064" d="M102 0v1434h861v-287h-431v-860h431v-287h-215v-512h-431v287h144v225h-359z" />
<glyph unicode="&#xc8;" d="M102 0v1434h1004v-287h-574v-287h431v-287h-431v-286h574v-287h-1004zM389 1679v287h287v-143h143v-287h-287v143h-143z" />
<glyph unicode="&#xc9;" d="M102 0v1434h1004v-287h-574v-287h431v-287h-431v-286h574v-287h-1004zM461 1536v287h143v143h287v-287h-143v-143h-287z" />
<glyph unicode="&#xca;" d="M102 0v1434h1004v-287h-574v-287h431v-287h-431v-286h574v-287h-1004zM246 1536v287h143v143h430v-143h144v-287h-287v143h-144v-143h-286z" />
<glyph unicode="&#xcb;" d="M102 0v1434h1004v-287h-574v-287h431v-287h-431v-286h574v-287h-1004zM246 1536v287h286v-287h-286zM676 1536v287h287v-287h-287z" />
<glyph unicode="&#xcc;" horiz-adv-x="634" d="M31 1679v287h286v-143h144v-287h-287v143h-143zM102 0v1434h430v-1434h-430z" />
<glyph unicode="&#xcd;" horiz-adv-x="634" d="M102 0v1434h430v-1434h-430zM174 1536v287h143v143h287v-287h-143v-143h-287z" />
<glyph unicode="&#xce;" horiz-adv-x="634" d="M-41 1536v287h143v143h430v-143h144v-287h-287v143h-143v-143h-287zM102 0v1434h430v-1434h-430z" />
<glyph unicode="&#xcf;" horiz-adv-x="634" d="M-41 1536v287h287v-287h-287zM102 0v1434h430v-1434h-430zM389 1536v287h287v-287h-287z" />
<glyph unicode="&#xd0;" horiz-adv-x="1617" d="M102 573v287h205v574h1065v-144h144v-1147h-144v-143h-1065v573h-205zM737 287h348v860h-348v-287h205v-287h-205v-286z" />
<glyph unicode="&#xd1;" horiz-adv-x="1351" d="M102 0v1434h430v-287h144v-287h143v574h430v-1434h-430v287h-143v286h-144v-573h-430zM246 1536v287h143v143h287v-143h143v143h287v-287h-143v-143h-287v143h-144v-143h-286z" />
<glyph unicode="&#xd2;" d="M102 0v1434h1004v-1434h-1004zM317 1679v287h287v-143h144v-287h-287v143h-144zM532 287h144v860h-144v-860z" />
<glyph unicode="&#xd3;" d="M102 0v1434h1004v-1434h-1004zM461 1536v287h143v143h287v-287h-143v-143h-287zM532 287h144v860h-144v-860z" />
<glyph unicode="&#xd4;" d="M102 0v1434h1004v-1434h-1004zM246 1536v287h143v143h430v-143h144v-287h-287v143h-144v-143h-286zM532 287h144v860h-144v-860z" />
<glyph unicode="&#xd5;" d="M102 0v1434h1004v-1434h-1004zM174 1536v287h143v143h287v-143h144v143h286v-287h-143v-143h-287v143h-143v-143h-287zM532 287h144v860h-144v-860z" />
<glyph unicode="&#xd6;" d="M102 0v1434h1004v-1434h-1004zM246 1536v287h286v-287h-286zM532 287h144v860h-144v-860zM676 1536v287h287v-287h-287z" />
<glyph unicode="&#xd7;" d="M102 215v287h144v143h143v143h-143v144h-144v287h287v-144h143v-143h144v143h143v144h287v-287h-143v-144h-144v-143h144v-143h143v-287h-287v143h-143v144h-144v-144h-143v-143h-287z" />
<glyph unicode="&#xd8;" d="M102 0v1434h574v245h287v-245h143v-1434h-574v-246h-286v246h-144zM532 287h144v286h-144v-286zM532 860h144v287h-144v-287z" />
<glyph unicode="&#xd9;" d="M102 0v1434h430v-1147h144v1147h430v-1434h-1004zM317 1679v287h287v-143h144v-287h-287v143h-144z" />
<glyph unicode="&#xda;" d="M102 0v1434h430v-1147h144v1147h430v-1434h-1004zM461 1536v287h143v143h287v-287h-143v-143h-287z" />
<glyph unicode="&#xdb;" d="M102 0v1434h430v-1147h144v1147h430v-1434h-1004zM246 1536v287h143v143h430v-143h144v-287h-287v143h-144v-143h-286z" />
<glyph unicode="&#xdc;" d="M102 0v1434h430v-1147h144v1147h430v-1434h-1004zM246 1536v287h286v-287h-286zM676 1536v287h287v-287h-287z" />
<glyph unicode="&#xdd;" d="M102 717v717h430v-430h144v430h430v-717h-287v-717h-430v717h-287zM461 1536v287h143v143h287v-287h-143v-143h-287z" />
<glyph unicode="&#xde;" d="M102 0v1434h430v-287h574v-860h-574v-287h-430zM532 573h144v287h-144v-287z" />
<glyph unicode="&#xdf;" d="M102 0v1290h144v144h860v-717h-143v-144h143v-430h-143v-143h-287v1147h-144v-1147h-430z" />
<glyph unicode="&#xe0;" d="M102 0v1434h1004v-1434h-430v573h-144v-573h-430zM317 1679v287h287v-143h144v-287h-287v143h-144zM532 860h144v287h-144v-287z" />
<glyph unicode="&#xe1;" d="M102 0v1434h1004v-1434h-430v573h-144v-573h-430zM461 1536v287h143v143h287v-287h-143v-143h-287zM532 860h144v287h-144v-287z" />
<glyph unicode="&#xe2;" d="M102 0v1434h1004v-1434h-430v573h-144v-573h-430zM246 1536v287h143v143h430v-143h144v-287h-287v143h-144v-143h-286zM532 860h144v287h-144v-287z" />
<glyph unicode="&#xe3;" d="M102 0v1434h1004v-1434h-430v573h-144v-573h-430zM174 1536v287h143v143h287v-143h144v143h286v-287h-143v-143h-287v143h-143v-143h-287zM532 860h144v287h-144v-287z" />
<glyph unicode="&#xe4;" d="M102 0v1434h1004v-1434h-430v573h-144v-573h-430zM246 1536v287h286v-287h-286zM532 860h144v287h-144v-287zM676 1536v287h287v-287h-287z" />
<glyph unicode="&#xe5;" d="M102 0v1434h287v143h-143v307h143v144h430v-144h144v-307h-144v-143h287v-1434h-430v573h-144v-573h-430zM532 860h144v287h-144v-287zM532 1659h144v143h-144v-143z" />
<glyph unicode="&#xe6;" horiz-adv-x="1781" d="M102 0v1434h1577v-287h-573v-287h430v-287h-430v-286h573v-287h-1003v573h-144v-573h-430zM532 860h144v287h-144v-287z" />
<glyph unicode="&#xe7;" horiz-adv-x="1064" d="M102 0v1434h861v-287h-431v-860h431v-287h-215v-512h-431v287h144v225h-359z" />
<glyph unicode="&#xe8;" d="M102 0v1434h1004v-287h-574v-287h431v-287h-431v-286h574v-287h-1004zM389 1679v287h287v-143h143v-287h-287v143h-143z" />
<glyph unicode="&#xe9;" d="M102 0v1434h1004v-287h-574v-287h431v-287h-431v-286h574v-287h-1004zM461 1536v287h143v143h287v-287h-143v-143h-287z" />
<glyph unicode="&#xea;" d="M102 0v1434h1004v-287h-574v-287h431v-287h-431v-286h574v-287h-1004zM246 1536v287h143v143h430v-143h144v-287h-287v143h-144v-143h-286z" />
<glyph unicode="&#xeb;" d="M102 0v1434h1004v-287h-574v-287h431v-287h-431v-286h574v-287h-1004zM246 1536v287h286v-287h-286zM676 1536v287h287v-287h-287z" />
<glyph unicode="&#xec;" horiz-adv-x="634" d="M31 1679v287h286v-143h144v-287h-287v143h-143zM102 0v1434h430v-1434h-430z" />
<glyph unicode="&#xed;" horiz-adv-x="634" d="M102 0v1434h430v-1434h-430zM174 1536v287h143v143h287v-287h-143v-143h-287z" />
<glyph unicode="&#xee;" horiz-adv-x="634" d="M-41 1536v287h143v143h430v-143h144v-287h-287v143h-143v-143h-287zM102 0v1434h430v-1434h-430z" />
<glyph unicode="&#xef;" horiz-adv-x="634" d="M-41 1536v287h287v-287h-287zM102 0v1434h430v-1434h-430zM389 1536v287h287v-287h-287z" />
<glyph unicode="&#xf0;" horiz-adv-x="1617" d="M102 573v287h205v574h1065v-144h144v-1147h-144v-143h-1065v573h-205zM737 287h348v860h-348v-287h205v-287h-205v-286z" />
<glyph unicode="&#xf1;" horiz-adv-x="1351" d="M102 0v1434h430v-287h144v-287h143v574h430v-1434h-430v287h-143v286h-144v-573h-430zM246 1536v287h143v143h287v-143h143v143h287v-287h-143v-143h-287v143h-144v-143h-286z" />
<glyph unicode="&#xf2;" d="M102 0v1434h1004v-1434h-1004zM317 1679v287h287v-143h144v-287h-287v143h-144zM532 287h144v860h-144v-860z" />
<glyph unicode="&#xf3;" d="M102 0v1434h1004v-1434h-1004zM461 1536v287h143v143h287v-287h-143v-143h-287zM532 287h144v860h-144v-860z" />
<glyph unicode="&#xf4;" d="M102 0v1434h1004v-1434h-1004zM246 1536v287h143v143h430v-143h144v-287h-287v143h-144v-143h-286zM532 287h144v860h-144v-860z" />
<glyph unicode="&#xf5;" d="M102 0v1434h1004v-1434h-1004zM174 1536v287h143v143h287v-143h144v143h286v-287h-143v-143h-287v143h-143v-143h-287zM532 287h144v860h-144v-860z" />
<glyph unicode="&#xf6;" d="M102 0v1434h1004v-1434h-1004zM246 1536v287h286v-287h-286zM532 287h144v860h-144v-860zM676 1536v287h287v-287h-287z" />
<glyph unicode="&#xf7;" horiz-adv-x="1351" d="M102 573v287h1147v-287h-1147zM461 143v287h430v-287h-430zM461 1004v286h430v-286h-430z" />
<glyph unicode="&#xf8;" d="M102 0v1434h574v245h287v-245h143v-1434h-574v-246h-286v246h-144zM532 287h144v286h-144v-286zM532 860h144v287h-144v-287z" />
<glyph unicode="&#xf9;" d="M102 0v1434h430v-1147h144v1147h430v-1434h-1004zM317 1679v287h287v-143h144v-287h-287v143h-144z" />
<glyph unicode="&#xfa;" d="M102 0v1434h430v-1147h144v1147h430v-1434h-1004zM461 1536v287h143v143h287v-287h-143v-143h-287z" />
<glyph unicode="&#xfb;" d="M102 0v1434h430v-1147h144v1147h430v-1434h-1004zM246 1536v287h143v143h430v-143h144v-287h-287v143h-144v-143h-286z" />
<glyph unicode="&#xfc;" d="M102 0v1434h430v-1147h144v1147h430v-1434h-1004zM246 1536v287h286v-287h-286zM676 1536v287h287v-287h-287z" />
<glyph unicode="&#xfd;" d="M102 717v717h430v-430h144v430h430v-717h-287v-717h-430v717h-287zM461 1536v287h143v143h287v-287h-143v-143h-287z" />
<glyph unicode="&#xfe;" d="M102 0v1434h430v-287h574v-860h-574v-287h-430zM532 573h144v287h-144v-287z" />
<glyph unicode="&#xff;" d="M102 717v717h430v-430h144v430h430v-717h-287v-717h-430v717h-287zM246 1536v287h286v-287h-286zM676 1536v287h287v-287h-287z" />
<glyph unicode="&#x152;" horiz-adv-x="1781" d="M102 0v1434h1577v-287h-573v-287h430v-287h-430v-286h573v-287h-1577zM532 287h144v860h-144v-860z" />
<glyph unicode="&#x153;" horiz-adv-x="1781" d="M102 0v1434h1577v-287h-573v-287h430v-287h-430v-286h573v-287h-1577zM532 287h144v860h-144v-860z" />
<glyph unicode="&#x178;" d="M102 717v717h430v-430h144v430h430v-717h-287v-717h-430v717h-287zM246 1536v287h286v-287h-286zM676 1536v287h287v-287h-287z" />
<glyph unicode="&#x2c6;" horiz-adv-x="921" d="M102 1536v287h144v143h430v-143h143v-287h-287v143h-143v-143h-287z" />
<glyph unicode="&#x2dc;" horiz-adv-x="1064" d="M102 1536v287h144v143h286v-143h144v143h287v-287h-144v-143h-287v143h-143v-143h-287z" />
<glyph unicode="&#x2000;" horiz-adv-x="1014" />
<glyph unicode="&#x2001;" horiz-adv-x="2028" />
<glyph unicode="&#x2002;" horiz-adv-x="1014" />
<glyph unicode="&#x2003;" horiz-adv-x="2028" />
<glyph unicode="&#x2004;" horiz-adv-x="676" />
<glyph unicode="&#x2005;" horiz-adv-x="507" />
<glyph unicode="&#x2006;" horiz-adv-x="338" />
<glyph unicode="&#x2007;" horiz-adv-x="338" />
<glyph unicode="&#x2008;" horiz-adv-x="253" />
<glyph unicode="&#x2009;" horiz-adv-x="405" />
<glyph unicode="&#x200a;" horiz-adv-x="112" />
<glyph unicode="&#x2010;" horiz-adv-x="921" d="M102 573v287h717v-287h-717z" />
<glyph unicode="&#x2011;" horiz-adv-x="921" d="M102 573v287h717v-287h-717z" />
<glyph unicode="&#x2012;" horiz-adv-x="921" d="M102 573v287h717v-287h-717z" />
<glyph unicode="&#x2013;" horiz-adv-x="1064" d="M102 573v287h861v-287h-861z" />
<glyph unicode="&#x2014;" horiz-adv-x="1638" d="M102 573v287h1434v-287h-1434z" />
<glyph unicode="&#x2018;" horiz-adv-x="634" d="M102 717v717h287v-287h143v-430h-430z" />
<glyph unicode="&#x2019;" horiz-adv-x="634" d="M102 1004v430h430v-717h-286v287h-144z" />
<glyph unicode="&#x201a;" horiz-adv-x="634" d="M102 0v430h430v-717h-286v287h-144z" />
<glyph unicode="&#x201c;" d="M102 717v717h287v-287h143v-430h-430zM676 717v717h287v-287h143v-430h-430z" />
<glyph unicode="&#x201d;" d="M102 1004v430h430v-717h-286v287h-144zM676 1004v430h430v-717h-287v287h-143z" />
<glyph unicode="&#x201e;" d="M102 0v430h430v-717h-286v287h-144zM676 0v430h430v-717h-287v287h-143z" />
<glyph unicode="&#x2022;" horiz-adv-x="778" d="M102 430v574h574v-574h-574z" />
<glyph unicode="&#x2026;" horiz-adv-x="1781" d="M102 0v430h430v-430h-430zM676 0v430h430v-430h-430zM1249 0v430h430v-430h-430z" />
<glyph unicode="&#x202f;" horiz-adv-x="405" />
<glyph unicode="&#x2039;" horiz-adv-x="921" d="M102 573v287h213v144h217v143h287v-215h-143v-144h-144v-143h144v-72h143v-286h-287v143h-217v143h-213z" />
<glyph unicode="&#x203a;" horiz-adv-x="921" d="M102 287v286h144v72h143v143h-143v144h-144v215h287v-143h217v-144h213v-287h-213v-143h-217v-143h-287z" />
<glyph unicode="&#x205f;" horiz-adv-x="507" />
<glyph unicode="&#x20ac;" d="M102 573v287h144v430h143v144h717v-287h-430v-287h430v-287h-430v-286h430v-287h-717v143h-143v430h-144z" />
<glyph unicode="&#x2122;" horiz-adv-x="2068" d="M102 1290v144h717v-144h-215v-573h-287v573h-215zM963 717v717h286v-144h144v-143h143v143h143v144h287v-717h-287v287h-143v-144h-143v144h-144v-287h-286z" />
<glyph unicode="&#x25fc;" horiz-adv-x="1433" d="M0 0v1434h1434v-1434h-1434z" />
</font>
</defs>
</svg>
