<svg width="300" height="300" xmlns="http://www.w3.org/2000/svg">
  <!-- Background -->
  <rect width="300" height="300" fill="#1e3c72"/>

  <!-- Baseball -->
  <circle cx="150" cy="150" r="80" fill="white" stroke="#333" stroke-width="2"/>

  <!-- Stitches -->
  <path d="M 110 120 Q 130 110, 150 110 Q 170 110, 190 120" stroke="#CC0000" stroke-width="3" fill="none"/>
  <path d="M 110 180 Q 130 190, 150 190 Q 170 190, 190 180" stroke="#CC0000" stroke-width="3" fill="none"/>

  <!-- Stitch marks -->
  <line x1="115" y1="125" x2="120" y2="130" stroke="#CC0000" stroke-width="2"/>
  <line x1="125" y1="118" x2="130" y2="123" stroke="#CC0000" stroke-width="2"/>
  <line x1="135" y1="114" x2="140" y2="119" stroke="#CC0000" stroke-width="2"/>
  <line x1="145" y1="112" x2="150" y2="117" stroke="#CC0000" stroke-width="2"/>
  <line x1="155" y1="112" x2="160" y2="117" stroke="#CC0000" stroke-width="2"/>
  <line x1="165" y1="114" x2="170" y2="119" stroke="#CC0000" stroke-width="2"/>
  <line x1="175" y1="118" x2="180" y2="123" stroke="#CC0000" stroke-width="2"/>
  <line x1="185" y1="125" x2="180" y2="130" stroke="#CC0000" stroke-width="2"/>

  <line x1="115" y1="175" x2="120" y2="170" stroke="#CC0000" stroke-width="2"/>
  <line x1="125" y1="182" x2="130" y2="177" stroke="#CC0000" stroke-width="2"/>
  <line x1="135" y1="186" x2="140" y2="181" stroke="#CC0000" stroke-width="2"/>
  <line x1="145" y1="188" x2="150" y2="183" stroke="#CC0000" stroke-width="2"/>
  <line x1="155" y1="188" x2="160" y2="183" stroke="#CC0000" stroke-width="2"/>
  <line x1="165" y1="186" x2="170" y2="181" stroke="#CC0000" stroke-width="2"/>
  <line x1="175" y1="182" x2="180" y2="177" stroke="#CC0000" stroke-width="2"/>
  <line x1="185" y1="175" x2="180" y2="170" stroke="#CC0000" stroke-width="2"/>

  <!-- Text -->
  <text x="150" y="265" font-family="Arial, sans-serif" font-size="24" font-weight="bold" text-anchor="middle" fill="white">MLB SIMULATOR</text>
</svg>